<?xml version="1.0" encoding="UTF-8"?>
<svg id="Layer_1" xmlns="http://www.w3.org/2000/svg" version="1.1" viewBox="0 0 755.49 638.63">
  <!-- Generator: Adobe Illustrator 29.3.1, SVG Export Plug-In . SVG Version: 2.1.0 Build 151)  -->
  <defs>
    <style>
      .st0 {
        fill: #5a0f00;
      }

      .st1 {
        fill: #a0a0a0;
      }

      .st2 {
        fill: #740b00;
      }

      .st3 {
        fill: #fff;
      }

      .st4 {
        fill: #810001;
      }

      .st5 {
        fill: #d5d5d5;
      }

      .st6 {
        fill: #989898;
      }

      .st7 {
        fill: #1a1a1a;
      }
    </style>
  </defs>
  <g>
    <path class="st5" d="M215.85,458.09c-47.02,38.66-60.1,53.84-63.16,61.78-.38.98-3.66,6.54-3.66,6.54-3.02,31.79,41.77,23.57,44.22,38.42,1.61,9.73,26.95,8.32,34.39,4.42,9.69-5.08,17.69,15.78,29.72,17.69,8.02,1.27,21.64-16.95,39.06-14.74,12.08,1.53,25.86,21.37,42.33,22.85,17.45,1.56,38.39-22.45,50.95-22.85,16.99-.54,27.69,28,52.24,28,15.18,0,22.85-32.31,34.79-33.16,9.52-.68,46.26,5.16,49.64-9.58,3.11-13.6-12.8-53.58-16.93-61.91-.35-.71-18.19-26.59-18.19-26.59h0c-4.3-6.86-11.76-11.1-19.86-11.27l-239.74-5.08c-5.74-.12-11.34,1.82-15.78,5.47Z"/>
    <path d="M441.93,605.67c-15.4,0-26.02-9.64-34.56-17.38-6.39-5.8-11.93-10.83-17.5-10.63-3.95.12-10.81,4.66-17.45,9.05-10.51,6.95-22.41,14.83-34.15,13.78-10.56-.95-19.58-7.86-27.55-13.96-5.63-4.32-10.95-8.39-14.98-8.9-8.32-1.06-16.04,3.97-22.86,8.41-5.91,3.84-11.03,7.16-16.37,6.31-7.27-1.15-12.72-6.78-17.52-11.74-3.18-3.28-7.14-7.38-8.81-6.5-6.97,3.65-25.17,5.57-35.06.64-5.18-2.58-6.8-6.32-7.24-9.01-.42-2.52-7.64-4.66-13.44-6.38-13.17-3.9-33.07-9.8-30.83-33.45l.11-1.21.62-1.05c1.34-2.27,2.96-5.11,3.31-5.83,3.06-7.81,13.25-21.59,64.75-63.93h0c5.44-4.48,12.35-6.85,19.36-6.71l239.74,5.08c9.92.21,19,5.34,24.3,13.72,18,26.11,18.3,26.72,18.52,27.17,2.63,5.29,21.14,49.04,17.36,65.54-3.66,16-29.05,14.8-45.84,14.01-3.75-.18-6.99-.33-8.72-.21-2.82.2-7.46,7.4-10.85,12.66-6.2,9.62-13.22,20.52-24.33,20.52ZM390.17,566.75c9.68,0,17.22,6.84,24.52,13.46,7.89,7.15,16.04,14.55,27.23,14.55,5.16,0,10.47-8.24,15.16-15.52,5.65-8.76,10.98-17.04,19.24-17.63,2.38-.17,5.75-.01,10.01.19,9.05.43,33.07,1.56,34.69-5.55,2.47-10.78-11.38-47.8-16.39-58.04-1.3-2-11.56-16.93-17.9-26.14l-.13-.2c-3.33-5.32-9.07-8.58-15.35-8.71l-239.74-5.08c-4.42-.06-8.77,1.41-12.2,4.23h0c-38.01,31.25-58.14,50.72-61.54,59.53-.12.32-.49,1.27-3.41,6.26-.69,12.78,8.37,16.42,23.15,20.8,9.62,2.85,19.58,5.8,21.11,15.06.02.12.39.54,1.35,1.02,6,2.99,20.67,1.8,25.14-.54,8.89-4.66,16,2.68,21.71,8.58,3.79,3.92,7.72,7.97,11.4,8.55,1.36.02,5.8-2.79,8.71-4.68,7.56-4.91,17.92-11.64,30.18-10.08,6.95.88,13.4,5.83,20.24,11.07,7.12,5.45,14.48,11.09,21.89,11.76,7.93.7,18.14-6.05,27.17-12.01,8.63-5.7,16.09-10.63,23.12-10.85.22,0,.44-.01.65-.01Z"/>
  </g>
  <g>
    <path class="st1" d="M483.6,485.98c0,20.64-100.38,65.2-140.76,53.06-42-12.62-115.21-58.96-107.26-90.51,8.06-31.99,67-48.86,136.86-36.57,69.87,12.3,111.16,41.02,111.16,74.02Z"/>
    <path class="st6" d="M358.84,546.49c-6.53,0-12.47-.69-17.56-2.22-43.23-12.99-120.09-60.91-110.98-97.07,9.05-35.92,70.56-53.37,143.1-40.6,71.35,12.56,115.67,42.98,115.67,79.39,0,6.33-5.01,13.13-15.31,20.79-24.68,18.35-78.7,39.71-114.91,39.71ZM328.29,413.47c-45.75,0-81.74,13.84-87.42,36.39-2.92,11.59,9.08,28.61,32.91,46.68,20.97,15.9,49.36,30.89,70.64,37.28,13.03,3.92,35.52,1.44,61.69-6.8,23.68-7.46,47.11-18.57,61.13-28.99,10.79-8.02,10.91-11.88,10.91-12.04,0-30.76-40.87-57.06-106.65-68.65-14.91-2.62-29.49-3.87-43.2-3.87Z"/>
  </g>
  <g>
    <path class="st3" d="M227.57,403.61c.77,4.22-6.13,18.25-9.51,15.6-53.72-42.2-66.28-62.95-68.16-82-1.99-20.14,0-60.94,0-60.94l5.97-42.09,25.84-33.99,45.86,203.41Z"/>
    <path d="M218.98,424.99c-1.54,0-3.03-.5-4.29-1.49-55.74-43.79-68.2-65.27-70.22-85.75-2.01-20.31-.1-60.06-.02-61.74l.05-.5,6.17-43.5,33.79-44.43,48.48,215.05c1.07,5.89-4.57,17.97-9.91,21.18-1.3.78-2.69,1.17-4.05,1.17ZM155.34,276.79c-.16,3.43-1.86,41.18,0,59.89,1.66,16.83,13.18,36.31,63.42,76.13,1.58-2.44,3.36-6.55,3.43-8.33l-43.21-191.66-17.9,23.54-5.73,40.43Z"/>
  </g>
  <g>
    <path class="st3" d="M171.87,272.32c3.98,33.48,41.77,51.59,47.74,88.29,5.97,36.7,6.63,84.47,6.63,84.47,0,0,112.03,62.3,134.26,69.6s60.69-7.29,60.69-7.29c0,0,93.5-51.24,106.1-69.39,12.6-18.14-3.32-61.27,15.25-94.08,18.57-32.81,57.03-61.32,59.02-84.53,1.99-23.21,3.32-74.27-7.96-88.85s-36.2-47.6-75.79-57.29c-39.59-9.69-81.39-18.31-128.13-16.32-46.74,1.99-106.42,4.64-138.24,24.53-31.83,19.89-59.02,32.49-70.29,68.96s-9.28,81.9-9.28,81.9Z"/>
    <path d="M375.35,522.15c-5.86,0-11.53-.65-16.54-2.29-22.47-7.37-130.62-67.46-135.21-70.01l-2.76-1.53-.04-3.16c0-.47-.73-47.8-6.56-83.67-2.77-17.05-13.41-30.27-23.69-43.07-10.78-13.4-21.92-27.27-24.09-45.45l-.03-.4c-.08-1.89-1.9-46.8,9.52-83.75,10.56-34.16,34.23-48.56,61.65-65.25,3.58-2.18,7.24-4.4,10.96-6.73,33.24-20.78,92.94-23.32,140.9-25.36,48.99-2.09,92.62,7.41,129.65,16.47,40.77,9.97,66.06,42.74,78.21,58.48l.59.77c5.72,7.41,9.02,21.89,10.08,44.27,1.04,21.88-.51,42.57-1.01,48.38-1.29,15.09-14.66,30.4-30.13,48.12-10.78,12.35-21.93,25.13-29.57,38.63-9.47,16.73-9.28,36.93-9.12,54.76.15,16.17.28,30.13-6.4,39.75-12.96,18.66-98.27,65.75-107.95,71.06l-.69.32c-1.3.49-25.82,9.67-47.79,9.67ZM231.64,441.83c17.29,9.57,110.99,61.24,130.57,67.66,19.09,6.26,52.97-5.72,56.72-7.09,25.96-14.25,94.2-53.57,103.89-67.52,4.7-6.76,4.58-19.12,4.45-33.42-.18-19.2-.37-40.95,10.53-60.23,8.18-14.47,19.71-27.66,30.85-40.43,13.62-15.6,26.49-30.34,27.48-41.88,2.85-33.25,1.42-74.36-6.84-85.05l-.6-.77c-11.4-14.76-35.11-45.49-72.17-54.55-36.31-8.88-79.03-18.19-126.6-16.17-44.22,1.88-104.78,4.46-135.59,23.71-3.76,2.35-7.46,4.6-11.07,6.8-26.57,16.17-47.56,28.94-56.9,59.15-10.48,33.91-9.17,76.58-9.05,79.85,1.86,14.98,11.51,26.99,21.73,39.7,11.17,13.89,22.72,28.26,25.96,48.15,5.08,31.23,6.36,70.75,6.63,82.1Z"/>
  </g>
  <g>
    <path class="st4" d="M302.07,384.26c83.74,23.57,118.25,21.04,125.83,18.1s48.82-25.25,48.82-25.25v48.82s-30.3,40.4-59.76,41.24c-29.46.84-74.91,8-85.43-3.37s-24.41-19.36-29.46-45.45c-5.05-26.09,0-34.09,0-34.09Z"/>
    <path d="M360.64,475.62c-15.08,0-27.27-1.82-33.11-8.12-1.98-2.14-4.1-4.16-6.34-6.31-9.42-9-20.09-19.2-24.47-41.81-5.2-26.85-.29-36.4.74-38.04l2.17-3.44,3.92,1.1c80.59,22.68,115.66,20.87,122.37,18.26,5.95-2.31,36.81-18.8,48.2-24.96l8.05-4.35v59.78l-1.09,1.45c-1.3,1.74-32.24,42.51-63.96,43.42-7.07.2-15.02.77-23.44,1.37-11.61.83-22.97,1.64-33.03,1.64ZM305.77,390.95c-.68,4.33-1.02,12.55,1.65,26.36,3.71,19.2,12.25,27.36,21.29,36,2.27,2.16,4.61,4.4,6.81,6.78,6.18,6.67,35.76,4.56,57.36,3.01,8.54-.61,16.61-1.19,23.91-1.39,23.55-.67,48.94-30.77,54.46-37.67v-37.81c-12.63,6.77-35.57,18.94-41.38,21.2-2.77,1.08-29.42,9.59-124.1-16.49Z"/>
  </g>
  <g>
    <path class="st2" d="M457.1,436.6s-26.64,13.19-40.93,15.97c-14.29,2.78-73.1-.35-93.89-9.03"/>
    <path class="st0" d="M399.18,456.69c-23.91,0-61.7-3.42-78.1-10.27l2.4-5.75c19.9,8.31,78.43,11.5,92.09,8.84,13.72-2.66,39.88-15.57,40.14-15.7l2.77,5.59c-1.1.55-27.18,13.41-41.72,16.23-3.64.71-9.89,1.06-17.58,1.06Z"/>
  </g>
  <g>
    <path class="st3" d="M389.69,452.04c2.67-18.58,9.58-21.81,9.58-21.81l9.34.82,5.74,10.02s-.85,6.21-.82,9.37-23.84,1.6-23.84,1.6Z"/>
    <path d="M401.25,454.02c-4.39,0-8.86-.24-11.66-.42l-1.68-.11.24-1.67c2.76-19.2,10.15-22.86,10.46-23l.38-.18,10.56.92,6.41,11.19-.07.53c0,.06-.83,6.14-.81,9.15,0,.62-.26,1.22-.75,1.68-1.58,1.49-7.27,1.91-13.08,1.91ZM391.49,450.59c8.77.49,18.38.39,20.48-.61.04-2.77.57-7.09.77-8.59l-5.08-8.86-8.01-.7c-1.19.86-5.87,5.02-8.15,18.76Z"/>
  </g>
  <g>
    <path class="st3" d="M441.92,441.33c2.88-13.59,10.32-16.85,10.32-16.85l6.74-.85c4.26,12.08.24,13.97.24,13.97l-17.3,3.73Z"/>
    <path d="M439.9,443.36l.5-2.35c3.01-14.21,10.89-17.81,11.22-17.96l.43-.12,7.99-1.01.42,1.18c4.5,12.76.32,15.48-.56,15.9l-.34.11-19.65,4.24ZM452.71,425.99c-.97.54-6.02,3.73-8.68,13.29l14.6-3.15c.62-.59,1.64-3.55-.71-10.8l-5.21.66Z"/>
  </g>
  <g>
    <path class="st3" d="M416.88,451.97c.53-17.38,9.35-23.02,9.35-23.02l8.48-2.52c8.3,13.97,3.57,17.18,3.57,17.18l-21.4,8.36Z"/>
    <path d="M415.25,454.28l.07-2.36c.55-17.99,9.68-24.04,10.07-24.28l.4-.18,9.64-2.86.62,1.04c8.8,14.8,3.71,18.85,3.11,19.26l-.31.16-23.6,9.22ZM426.92,430.37c-1.05.79-7.29,6.03-8.36,19.27l18.89-7.38c.36-.47,2.38-3.71-3.48-13.99l-7.05,2.09Z"/>
  </g>
  <g>
    <path class="st3" d="M426.34,408.09c.27,15.58-6.37,21.32-6.37,21.32l-8.87-.67c-3.72-14.52-2.49-18.23-2.49-18.23l17.73-2.42Z"/>
    <path d="M420.49,431.01l-10.63-.8-.28-1.08c-3.73-14.55-2.6-18.68-2.46-19.11l.31-.92,20.43-2.79.03,1.75c.28,16.13-6.62,22.27-6.91,22.52l-.49.42ZM412.33,427.27l7.03.53c1.29-1.47,5.22-6.83,5.42-17.92l-14.79,2.02c-.09,1.72.05,6.15,2.34,15.37Z"/>
  </g>
  <g>
    <path class="st3" d="M406.68,410.44c-3.88,15.77-12.35,16.89-12.35,16.89l-8.35-1.74s-2.39,2.41-1.38-7.55l1.01-9.95,21.06,2.35Z"/>
    <path d="M394.27,428.91l-8.02-1.67c-.52.21-1.13.25-1.72-.03-1.39-.65-2.17-2.49-1.47-9.32l1.17-11.52,24.38,2.72-.42,1.72c-4.09,16.61-13.27,18.01-13.65,18.06l-.26.04ZM386.02,424.01l8.32,1.73c1.2-.3,7.02-2.31,10.37-13.95l-17.69-1.97-.85,8.39c-.34,3.36-.26,5.02-.14,5.8Z"/>
  </g>
  <g>
    <path class="st3" d="M384.36,407.06c-5.38,17.98-12.08,20.27-12.08,20.27l-8.23-2.02-3.54-10.63s1.75-6.01,2.24-9.14c.48-3.12,21.61,1.51,21.61,1.51Z"/>
    <path d="M372.35,428.95l-9.51-2.33-3.97-11.91.14-.47c.02-.06,1.73-5.95,2.2-8.94.07-.45.3-1.08,1.03-1.58,3.11-2.13,16.74.56,22.46,1.81l1.64.36-.48,1.61c-5.45,18.23-12.31,21.04-13.07,21.3l-.43.15ZM365.25,424l6.85,1.68c1.28-.76,6.06-4.35,10.26-17.45-7.7-1.59-16.18-2.7-18.15-2.03-.48,2.75-1.67,7.03-2.08,8.45l3.12,9.35Z"/>
  </g>
  <g>
    <path class="st3" d="M464.73,389.59c1.9,13.76-4.43,19.39-4.43,19.39l-6.48,3.13c-8.55-9.88-5.18-13.05-5.18-13.05l16.09-9.47Z"/>
    <path d="M453.42,414.03l-.78-.9c-9.07-10.48-5.81-14.5-5.06-15.2l.28-.21,18.1-10.66.32,2.32c1.99,14.42-4.66,20.52-4.94,20.77l-.36.24-7.55,3.65ZM449.66,400.27c-.42.76-.41,3.88,4.57,9.91l5.16-2.49c.81-.83,4.79-5.46,4.04-15.53l-13.77,8.11Z"/>
  </g>
  <g>
    <path class="st3" d="M359.12,404.11c-2.58,13.64-11.88,19.52-11.88,19.52l-11.36-3.49s-1.03,2.38-1.55-5c-.52-7.38,2.58-15.15,2.58-15.15l22.21,4.12Z"/>
    <path d="M347.46,425.33l-11.2-3.44c-.33.16-.7.22-1.07.15-1.51-.26-2.08-1.84-2.42-6.79-.54-7.65,2.56-15.51,2.69-15.84l.47-1.19,25.01,4.63-.29,1.54c-2.68,14.15-12.18,20.29-12.58,20.54l-.61.38ZM336.29,418.64l10.67,3.27c1.87-1.42,7.95-6.68,10.3-16.56l-19.33-3.58c-.8,2.39-2.42,7.99-2.05,13.27.13,1.86.29,2.96.41,3.6Z"/>
  </g>
  <g>
    <path class="st3" d="M311.9,393.8c2.9,22.36,9.44,25.76,9.44,25.76l6.17-3.59s1.77.02,1.44-8.63l-.33-8.64-16.73-4.9Z"/>
    <path d="M321.38,421.34l-.76-.4c-.74-.39-7.35-4.43-10.27-26.95l-.31-2.37,20.09,5.89.37,9.77c.26,6.89-.75,8.76-1.53,9.56-.3.31-.6.48-.86.57l-6.74,3.92ZM313.77,395.97c2.26,15.01,6.19,20.21,7.7,21.7l5.32-3.09c.2-.4.79-2.01.6-7.18l-.28-7.52-13.34-3.91ZM326.73,414.69h0Z"/>
  </g>
  <g>
    <path class="st3" d="M320.04,444.84c1.23-14.11,6.4-17.47,6.4-17.47,0,0,9.05-8.4,10.02,0,.97,8.4,2.26,21.17,2.26,21.17l-18.68-3.7Z"/>
    <path d="M340.48,450.47l-22.11-4.38.12-1.39c1.19-13.71,5.98-17.84,6.98-18.56,1.13-1.03,5.93-5.13,9.5-3.81,1.72.64,2.75,2.27,3.04,4.85.96,8.31,2.25,21.06,2.27,21.19l.21,2.09ZM321.73,443.58l15.22,3.01c-.41-3.98-1.32-12.78-2.05-19.05-.09-.74-.33-2.03-1.03-2.28-1.32-.49-4.57,1.57-6.38,3.25l-.21.16s-4.24,3.11-5.56,14.91Z"/>
  </g>
  <g>
    <path class="st3" d="M338.74,448.28c4.09-18.06,13-22.79,13-22.79l9.55,3.28c0,17.81-2.4,21.74-2.4,21.74l-20.14-2.23Z"/>
    <path d="M359.7,452.16l-22.86-2.53.39-1.7c4.2-18.54,13.4-23.62,13.79-23.82l.6-.32,11.24,3.86v1.11c0,17.74-2.36,22.11-2.63,22.55l-.52.85ZM340.67,446.92l17.21,1.9c.59-1.86,1.77-7.07,1.85-18.95l-7.78-2.67c-1.81,1.29-7.88,6.46-11.28,19.72Z"/>
  </g>
  <g>
    <path class="st3" d="M362.97,450.93c3.12-19.44,12.59-21.52,12.59-21.52l9.56,1.39s2.5-3.12,2.15,9.03l-.35,12.15-23.95-1.04Z"/>
    <path d="M388.43,453.6l-27.28-1.19.28-1.73c3.26-20.25,13.36-22.7,13.79-22.8l.28-.06,9.2,1.34c.52-.28,1.16-.39,1.8-.15,1.57.58,2.56,2.64,2.33,10.86l-.39,13.73ZM364.81,449.45l20.6.9.3-10.57c.13-4.41-.14-6.46-.37-7.37l-9.67-1.4c-1.29.47-8.03,3.62-10.87,18.45Z"/>
  </g>
  <g>
    <path class="st3" d="M445.49,399.99c6.41,13.16,3.46,19,3.46,19,0,0-3.83,12.46-9.21,5.57s-13.4-17.46-13.4-17.46l19.15-7.12Z"/>
    <path d="M443,428.2c-1.23,0-2.84-.55-4.49-2.67-5.33-6.82-13.33-17.37-13.41-17.47l-1.27-1.67,22.44-8.34.62,1.27c6.2,12.71,3.98,19.16,3.52,20.23-.47,1.5-2.69,7.85-6.66,8.59-.23.04-.48.07-.74.07ZM428.85,407.84c2.48,3.26,8.07,10.59,12.11,15.77.58.74,1.43,1.6,2.21,1.46,1.64-.3,3.52-4.07,4.28-6.53l.1-.25s2.26-5.13-2.86-16.34l-15.84,5.89Z"/>
  </g>
  <g>
    <path class="st3" d="M421.67,281.44c39.1,35.77,85.36,35.77,95.38,51.03s19.55,18.12,23.37,41.97c3.82,23.84,6.2,31.95,6.2,31.95l-52.93-35.77-77.73-12.88-18.12-1.43"/>
    <path d="M556.05,419.34l-64.44-43.53-76.33-12.64-17.89-1.41.86-10.87,18.58,1.49,78.91,13.07,42.59,28.78c-.93-4.78-2.04-10.99-3.31-18.91-2.43-15.18-7.03-20.56-13.39-28.01-2.79-3.26-5.96-6.97-9.15-11.83-3.21-4.89-13.76-8.57-25.99-12.83-19.02-6.63-45.07-15.72-68.51-37.16l7.36-8.05c21.79,19.93,45.6,28.23,64.74,34.91,14.68,5.12,26.28,9.17,31.52,17.15,2.81,4.28,5.61,7.56,8.32,10.72,6.67,7.79,12.96,15.16,15.88,33.37,3.68,23.01,6.03,31.2,6.05,31.28l4.21,14.48Z"/>
  </g>
  <g>
    <ellipse cx="509.42" cy="343.91" rx="9.95" ry="15.25" transform="translate(-43.13 613.13) rotate(-60)"/>
    <path d="M514.41,360.87c-4.04,0-8.47-1.18-12.69-3.62-10.05-5.81-14.55-16.21-10.23-23.69,4.32-7.48,15.58-8.79,25.63-2.98,4.43,2.56,7.99,6.17,10.02,10.17,2.38,4.7,2.46,9.62.21,13.52h0c-2.51,4.34-7.35,6.6-12.94,6.6ZM504.39,337.86c-1.8,0-3.08.49-3.46,1.15-.79,1.37.98,5.75,6.24,8.79,5.26,3.04,9.94,2.38,10.73,1.01h0c.36-.62.17-1.82-.49-3.13-1.07-2.1-3.16-4.17-5.75-5.66-2.74-1.58-5.31-2.16-7.27-2.16Z"/>
  </g>
  <path d="M481.26,205.2l-10.65-2.34c4.56-20.75,11.99-41.1,20.37-55.84,10.26-18.04,21.49-27,32.47-25.92,15.98,1.58,27.45,12.5,35.04,33.39,4.22,11.62,6.46,24.13,6.67,37.18l-10.91.17c-.18-11.83-2.21-23.14-6.01-33.62-6.1-16.77-14.31-25.12-25.86-26.26-13.31-1.31-32.1,32.23-41.12,73.25Z"/>
  <path d="M360.55,205.08c-4.54-23.21-11.88-45.87-20.13-62.16-8.02-15.84-16.57-24.88-22.86-24.18-12.06,1.34-20.68,11.25-27.13,31.17-4.01,12.41-6.14,25.81-6.34,39.83l-10.91-.15c.21-15.11,2.52-29.59,6.87-43.04,7.81-24.16,19.69-36.81,36.3-38.65,28.11-3.13,48.19,60.84,54.89,95.09l-10.7,2.1Z"/>
  <polygon points="308.86 360.75 297.95 360.46 299.88 289.19 323.44 206.51 333.93 209.5 310.75 290.86 308.86 360.75"/>
  <rect x="501.82" y="210.36" width="10.91" height="146.46" transform="translate(-8.09 14.98) rotate(-1.68)"/>
  <g>
    <path class="st3" d="M450.72,291.46c51.69-42.44,53.5-45.3,63.93-46.26,10.43-.95,32.64-2.86,37.18,0,4.53,2.86,9.97-1.91,3.63,26.71-6.35,28.61-15.87,36.72-27.66,41.01s-17.23,10.01-32.19,7.15c-14.96-2.86-25.84-7.63-37.63-14.31-11.79-6.68-7.25-14.31-7.25-14.31Z"/>
    <path d="M503.13,326.3c-2.56,0-5.38-.26-8.55-.87-17.19-3.29-29.05-9.11-39.3-14.92-5.67-3.21-9.17-7.2-10.41-11.85-1.4-5.29.71-9.24,1.15-9.98l.49-.82.74-.61c7.8-6.41,14.47-11.91,20.2-16.65,33.43-27.61,36.16-29.86,46.69-30.83,28.49-2.61,36.82-1.56,40.59.82.22.14.68.29,1.17.45,9.49,3.08,9.52,11.07,4.87,32.05-6.74,30.36-17.31,39.93-31.12,44.96-2.75,1-5.18,2.11-7.52,3.18-5.68,2.59-11.13,5.08-19.01,5.08ZM455.31,294.74c-.2,1.58,1.1,3.87,5.35,6.28,10.91,6.18,21.2,10.87,35.97,13.7,9.51,1.82,14.07-.27,20.99-3.42,2.42-1.1,5.16-2.35,8.32-3.5,8.79-3.2,17.91-8.7,24.2-37.07,2.95-13.28,2.92-17.76,2.68-19.23-.09-.03-.18-.06-.26-.09-.93-.3-2.19-.71-3.52-1.53-1.45-.6-7.63-1.65-33.89.75-6.91.63-8.43,1.69-40.74,28.38-5.46,4.51-11.76,9.71-19.09,15.73ZM548.91,249.81s.02,0,.02.02c0,0-.02,0-.02-.02Z"/>
  </g>
  <g>
    <path class="st3" d="M360.15,292.41c-26.37-31.37-23.7-31.31-35.77-39.29-14.28-9.43-59.89-9.43-69.14-9.43-13.09,0-20.51,37.75-14.31,52.54,6.2,14.78,15.99,29.8,25.75,32.43,22.67,6.11,41.37,9.92,61.52,8.11,17.78-1.6,23.54-12.04,28.14-18.6,12.21-17.45,3.82-25.75,3.82-25.75Z"/>
    <path d="M318.06,342.67c-16.58,0-32.97-3.41-52.79-8.75-15.11-4.07-26.29-28.27-29.36-35.59-5.39-12.84-2.18-38.98,6.34-51.8,4.56-6.86,9.58-8.3,12.99-8.3,25.78,0,59.22,1.79,72.15,10.34,8.97,5.93,10.76,8.16,19.34,18.86,3.93,4.9,9.3,11.6,17.59,21.46,1.85,2.12,9.91,13.22-3.51,32.4-.33.48-.68.98-1.03,1.49-4.52,6.62-12.09,17.7-31.09,19.41-3.58.32-7.11.48-10.64.48ZM255.24,249.14c-.79,0-2.23.9-3.91,3.43-6.4,9.62-9.31,32.15-5.37,41.55,6.59,15.72,15.49,27.48,22.14,29.27,22.87,6.16,40.81,9.63,59.61,7.94,13.88-1.25,18.76-8.4,23.06-14.7.38-.55.74-1.08,1.1-1.59,8.63-12.34,4.96-18.04,4.38-18.8l-.28-.24v-.07c-8.36-9.96-13.79-16.73-17.75-21.67-8.42-10.5-9.3-11.6-16.84-16.58-3.88-2.56-18.09-8.53-66.14-8.53Z"/>
  </g>
  <g>
    <path d="M297.13,247.92c-5.46,2.83-7.14,9.72-8.58,15.3-2.5,10.07-2.9,21.84,1.2,31.86,10.17,23.12,26.37-1.76,25.95-16.67-.07-8.27.12-19.05-4.73-25.92-2.98-4.52-8.95-7.31-13.62-4.69l-.21.11Z"/>
    <path d="M299.61,309.96c-4.31,0-10.27-2.27-14.85-12.68-4.15-10.13-4.66-22.65-1.5-35.37l.1-.38c1.58-6.15,3.75-14.57,11.27-18.46l.16-.08c7.52-4.13,16.39,0,20.69,6.42,5.55,7.91,5.62,18.87,5.68,27.69v1.27c.35,12.11-7.93,28.84-18.74,31.28-.81.18-1.75.31-2.8.31ZM299.63,252.77c-3.18,1.66-4.52,6.88-5.71,11.49l-.09.33c-1.5,6.03-3.38,17.81.97,28.43,1.72,3.91,3.79,6.3,5.21,5.99,4.24-.96,10.48-12.08,10.24-20.44v-1.4c-.06-7.31-.11-16.41-3.73-21.52l-.1-.15c-1.49-2.25-4.54-3.98-6.4-2.93l-.39.2Z"/>
  </g>
  <g>
    <ellipse class="st3" cx="297.86" cy="278.31" rx="2.13" ry="5.99"/>
    <path class="st3" d="M297.86,289.76c-4.6,0-7.58-4.49-7.58-11.45s2.98-11.45,7.58-11.45,7.58,4.49,7.58,11.45-2.98,11.45-7.58,11.45Z"/>
  </g>
  <g>
    <path d="M502.15,253.44c-12.14-3.07-20.86,12.95-20.66,22.46-.13,7.79,2.87,16.52,7.58,19.85,5.18,3.84,12.01,1.2,15.44-3.68,6.94-8.73,10.13-33.05-2.16-38.56l-.2-.07Z"/>
    <path d="M494.62,303.03c-3.17,0-6.23-1-8.8-2.91-6.86-4.85-9.9-15.95-9.79-24.22-.11-7.17,3.84-17.97,11.41-24,4.88-3.88,10.42-5.18,16.04-3.76l1.09.38c5.27,2.36,8.92,7.16,10.56,13.87,2.56,10.51-.25,25.24-6.26,32.93-2.84,3.96-7.24,6.76-11.8,7.5-.82.13-1.64.2-2.45.2ZM499.13,258.51c-1.66,0-3.27.64-4.9,1.93-4.48,3.56-7.39,10.81-7.3,15.34v.1s0,.1,0,.1c-.11,6.84,2.64,13.44,5.28,15.31.99.73,1.98.96,3.12.78,1.74-.28,3.55-1.48,4.71-3.14l.19-.25c3.57-4.49,6.22-15.81,4.3-23.68-.78-3.2-2.16-5.34-4.11-6.35-.44-.09-.87-.13-1.3-.13Z"/>
  </g>
  <g>
    <ellipse class="st3" cx="489.75" cy="279.27" rx="1.06" ry="3"/>
    <path class="st3" d="M489.75,286.94c-2.86,0-5.74-2.37-5.74-7.67s2.88-7.67,5.74-7.67,5.74,2.37,5.74,7.67-2.88,7.67-5.74,7.67ZM486.38,279.27c.54.77,1.71,1.68,3.37,1.68s2.83-.91,3.36-1.68c-.54-.77-1.71-1.68-3.36-1.68s-2.83.91-3.37,1.68Z"/>
  </g>
  <g>
    <line x1="255.24" y1="243.69" x2="340.48" y2="268.36"/>
    <rect x="292.41" y="211.66" width="10.91" height="88.74" transform="translate(-30.87 470.98) rotate(-73.86)"/>
  </g>
  <rect x="482.62" y="248.27" width="59.83" height="10.91" transform="translate(-55.39 186.43) rotate(-19.58)"/>
  <g id="Hat">
    <g>
      <path d="M101.3,218.36c11.12,17.16,80.64-3.99,155.29-47.25,74.64-43.26,126.14-92.23,115.03-109.39-11.12-17.16-80.64,3.99-155.29,47.25-74.64,43.26-126.14,92.23-115.03,109.39Z"/>
      <path class="st7" d="M118.52,229.68c-10.43,0-18.06-2.58-21.8-8.36h0c-2.42-3.73-3.01-8.29-1.75-13.54,5.8-24.18,53.47-65.79,118.62-103.54,69.39-40.22,147.53-68.76,162.6-45.5,2.42,3.73,3.01,8.29,1.75,13.54-5.8,24.18-53.46,65.78-118.61,103.54-52.16,30.22-109.25,53.86-140.8,53.86ZM105.88,215.39c2.27,3.5,14.86,6.76,47.66-3.22,28.94-8.81,64.57-25.07,100.32-45.78,68.85-39.9,109.2-78.82,113.48-96.64.54-2.23.44-3.94-.29-5.06-2.27-3.5-14.85-6.76-47.66,3.22-28.94,8.81-64.57,25.07-100.32,45.78-68.85,39.9-109.2,78.82-113.48,96.64-.54,2.23-.44,3.94.29,5.07h0Z"/>
    </g>
    <g>
      <path d="M245.16,41.82l44.15,55.88s-32.23,73.39-126.62,75.27l-43.09-59.15,125.56-72Z"/>
      <path class="st7" d="M159.96,178.48l-48.35-66.37L246.52,34.75l49.1,62.15-1.32,3c-.35.79-8.74,19.59-29.18,38.72-18.81,17.61-51.84,38.8-102.32,39.81l-2.84.06ZM127.59,115.52l37.82,51.92c36.35-1.29,67.25-13.55,91.91-36.46,14.45-13.42,22.51-26.89,25.57-32.62l-39.09-49.48-116.2,66.63Z"/>
    </g>
    <g>
      <path d="M119.6,113.82c6.96,10.88,40.72,3.59,75.39-16.29,34.67-19.88,57.13-44.82,50.17-55.71-6.96-10.88-40.72-3.59-75.39,16.29-34.67,19.88-57.13,44.82-50.17,55.71Z"/>
      <path class="st7" d="M133.42,124.28c-8.49,0-15.05-2.28-18.41-7.53h0c-1.49-2.32-2.96-6.3-1.55-12.05,3.57-14.56,24.61-34.71,53.6-51.33,33.44-19.17,72.58-30.31,82.69-14.5,1.49,2.32,2.96,6.3,1.55,12.05-3.57,14.56-24.61,34.71-53.6,51.33-22.33,12.81-47.21,22.03-64.29,22.03ZM124.2,110.88c1.18,1.85,7.05,4.14,21.56,1,13.71-2.96,30.23-9.74,46.52-19.08,28.67-16.44,46.07-34.81,48.44-44.47.39-1.6.34-2.8-.15-3.57-1.18-1.85-7.05-4.14-21.56-1-13.71,2.96-30.23,9.74-46.52,19.08-28.67,16.44-46.07,34.82-48.44,44.47-.39,1.6-.34,2.8.15,3.57h0Z"/>
    </g>
  </g>
  <g>
    <path d="M258.99,314.5c28.82-2.69,58.11-.32,86.12,6.98"/>
    <path d="M260.03,316.87c28.17-2.58,56.68-.1,84.05,6.98,1.49.39,4.14-.11,4.79-1.71.72-1.79-1.41-2.68-2.72-3.02-28.75-7.44-58.63-9.69-88.19-6.98-1.44.13-3.32,1.38-2.72,3.02.65,1.77,3.31,1.85,4.79,1.71h0Z"/>
  </g>
  <g>
    <path d="M472.24,305.72c22.45-3.24,45.38-3.1,67.79.42"/>
    <path d="M473.28,308.08c21.79-3.11,43.97-2.96,65.72.42,1.54.24,4.1-.01,4.79-1.71s-1.37-2.81-2.72-3.02c-23.13-3.6-46.69-3.73-69.86-.42-1.42.2-3.34,1.34-2.72,3.02s3.33,1.92,4.79,1.71h0Z"/>
  </g>
  <g>
    <path d="M295.89,370.15c-6.24-.27-12,5.71-11.49,11.93"/>
    <path d="M295.89,367.7c-7.76-.26-15.98,6.14-15.39,14.39.13,1.78,2.39,2.5,3.9,2.45.93-.03,1.97-.17,2.75-.72.56-.39,1.2-.98,1.14-1.74-.07-.95,0-1.89.19-2.82l-.14.65c.31-1.42.9-2.74,1.71-3.95l-.39.59c.51-.74,1.09-1.43,1.74-2.04.16-.15.36-.28.5-.45-.39.32-.47.38-.22.18.09-.07.18-.14.27-.2.36-.26.73-.51,1.12-.73.19-.11.4-.2.59-.32-.96.55-.29.15-.03.04.21-.08.41-.16.62-.23.31-.1,1.1-.23-.13.01.44-.09.86-.18,1.31-.24.65-.09-1.16.05-.2.03.22,0,.45,0,.67,0,.88.03,2-.23,2.75-.72.53-.35,1.19-1.02,1.14-1.74-.13-1.85-2.41-2.4-3.9-2.45h0Z"/>
  </g>
  <g>
    <path d="M382.04,486.01c6.58-2.1,13.92-1.72,20.25,1.04"/>
    <path d="M384,488.13c.12-.04,1.46-.41.76-.23.34-.08.68-.16,1.03-.24.8-.17,1.61-.3,2.42-.4.25-.03,1.07-.1.36-.05.47-.04.93-.06,1.4-.07.76-.02,1.52,0,2.28.03.18,0,.35.02.53.03-.45-.04-.45-.04.01,0,.35.04.7.08,1.05.13.81.11,1.62.26,2.42.45.14.03,1.05.27.43.1.45.13.9.26,1.34.41.78.26,1.54.56,2.29.88,1.58.68,4.13.45,5.33-.88,1.27-1.42-.05-2.78-1.4-3.36-7.62-3.27-16.3-3.5-24.18-1.04-1.44.45-2.58,2.05-1.4,3.36,1.28,1.42,3.67,1.4,5.33.88h0Z"/>
  </g>
  <g>
    <path d="M504.91,243.38c-18.72,10.25-37,23.07-47.55,41.62"/>
    <path d="M502.15,241.64c-19.03,10.46-37.53,23.51-48.55,42.7-.92,1.61,1.54,2.81,2.72,3.02,1.72.3,3.87-.1,4.79-1.71,10.5-18.29,28.44-30.59,46.55-40.54,1.51-.83,1.34-2.6,0-3.47-1.61-1.04-3.88-.89-5.51,0h0Z"/>
  </g>
  <g>
    <path d="M292.53,254.38c8.04,4.24,16.88,6.69,25.29,10.11,11.83,4.81,22.9,11.6,32.11,20.45"/>
    <path d="M289.77,256.11c9.95,5.17,20.86,7.94,31.01,12.63,9.44,4.37,18.25,10.24,25.78,17.43,1.36,1.3,3.61,1.53,5.33.88,1.29-.48,2.76-2.06,1.4-3.36-7.89-7.53-16.95-13.59-26.75-18.32-10.15-4.9-21.26-7.53-31.26-12.73-1.66-.86-3.87-1.06-5.51,0-1.33.86-1.57,2.66,0,3.47h0Z"/>
  </g>
</svg>